<svg width="407" height="412" viewBox="0 0 407 412" fill="none" xmlns="http://www.w3.org/2000/svg">
<g opacity="0.3">
<path opacity="0.3" d="M387.443 52.3417H294.215V174.778H387.443V52.3417Z" stroke="black" stroke-miterlimit="10"/>
<path opacity="0.3" d="M370.336 74.8069H311.322V152.313H370.336V74.8069Z" stroke="black" stroke-miterlimit="10"/>
</g>
<path d="M272.374 38.62H25.5466V258.33H272.374V38.62Z" fill="#263238" stroke="#263238" stroke-miterlimit="10"/>
<path d="M267.695 33.2707H20.8671V252.981H267.695V33.2707Z" fill="white" stroke="#263238" stroke-linecap="round" stroke-linejoin="round"/>
<path d="M219.633 121.937H231.906V109.663H219.633V121.937Z" fill="white" stroke="#263238" stroke-linecap="round" stroke-linejoin="round"/>
<path d="M235.699 121.937H247.972V109.663H235.699V121.937Z" fill="white" stroke="#263238" stroke-linecap="round" stroke-linejoin="round"/>
<path d="M214.727 116.542H152.373" stroke="#263238" stroke-linecap="round" stroke-linejoin="round"/>
<path d="M219.633 150.91H231.906V138.636H219.633V150.91Z" fill="white" stroke="#263238" stroke-linecap="round" stroke-linejoin="round"/>
<path d="M235.699 150.91H247.972V138.636H235.699V150.91Z" fill="white" stroke="#263238" stroke-linecap="round" stroke-linejoin="round"/>
<path d="M214.727 145.506H152.373" stroke="#263238" stroke-linecap="round" stroke-linejoin="round"/>
<path d="M219.633 179.883H231.906V167.609H219.633V179.883Z" fill="white" stroke="#263238" stroke-linecap="round" stroke-linejoin="round"/>
<path d="M235.699 179.883H247.972V167.609H235.699V179.883Z" fill="white" stroke="#263238" stroke-linecap="round" stroke-linejoin="round"/>
<path d="M214.727 174.479H152.373" stroke="#263238" stroke-linecap="round" stroke-linejoin="round"/>
<path d="M102.292 121.937H114.566V109.663H102.292V121.937Z" fill="white" stroke="#263238" stroke-linecap="round" stroke-linejoin="round"/>
<path d="M118.367 121.937H130.641V109.663H118.367V121.937Z" fill="white" stroke="#263238" stroke-linecap="round" stroke-linejoin="round"/>
<path d="M97.3864 116.542H35.0323" stroke="#263238" stroke-linecap="round" stroke-linejoin="round"/>
<path d="M102.292 150.91H114.566V138.636H102.292V150.91Z" fill="white" stroke="#263238" stroke-linecap="round" stroke-linejoin="round"/>
<path d="M118.367 150.91H130.641V138.636H118.367V150.91Z" fill="white" stroke="#263238" stroke-linecap="round" stroke-linejoin="round"/>
<path d="M97.3864 145.506H35.0323" stroke="#263238" stroke-linecap="round" stroke-linejoin="round"/>
<path d="M102.292 179.883H114.566V167.609H102.292V179.883Z" fill="white" stroke="#263238" stroke-linecap="round" stroke-linejoin="round"/>
<path d="M118.367 179.883H130.641V167.609H118.367V179.883Z" fill="white" stroke="#263238" stroke-linecap="round" stroke-linejoin="round"/>
<path d="M97.3864 174.479H35.0323" stroke="#263238" stroke-linecap="round" stroke-linejoin="round"/>
<path d="M52.4288 222.08H38.9062V235.602H52.4288V222.08Z" fill="white" stroke="#263238" stroke-linecap="round" stroke-linejoin="round"/>
<path d="M107.614 222.08H94.0917V235.602H107.614V222.08Z" fill="white" stroke="#263238" stroke-linecap="round" stroke-linejoin="round"/>
<path d="M164.99 222.08H151.468V235.602H164.99V222.08Z" fill="white" stroke="#263238" stroke-linecap="round" stroke-linejoin="round"/>
<path d="M122.395 113.773L124.486 117.972L134.614 108.188" stroke="#263238" stroke-width="2" stroke-linecap="round" stroke-linejoin="round"/>
<path d="M122.395 142.42L124.486 146.611L134.614 136.826" stroke="#263238" stroke-width="2" stroke-linecap="round" stroke-linejoin="round"/>
<path d="M104.926 172.461L107.026 176.652L117.154 166.867" stroke="#263238" stroke-width="2" stroke-linecap="round" stroke-linejoin="round"/>
<path d="M239.057 113.429L241.147 117.619L251.276 107.835" stroke="#263238" stroke-width="2" stroke-linecap="round" stroke-linejoin="round"/>
<path d="M222.149 142.764L224.24 146.954L234.368 137.179" stroke="#263238" stroke-width="2" stroke-linecap="round" stroke-linejoin="round"/>
<path d="M222.149 172.198L224.24 176.389L234.368 166.614" stroke="#263238" stroke-width="2" stroke-linecap="round" stroke-linejoin="round"/>
<path d="M267.695 33.2707H20.8671V67.5931H267.695V33.2707Z" fill="#7572FE" stroke="#263238" stroke-linecap="round" stroke-linejoin="round"/>
<path d="M267.695 33.2707H258.399V252.981H267.695V33.2707Z" fill="#DBDBDB" stroke="#263238" stroke-linecap="round" stroke-linejoin="round"/>
<path d="M267.695 66.2897H258.399V108.695H267.695V66.2897Z" fill="#949494" stroke="#263238" stroke-linecap="round" stroke-linejoin="round"/>
<path d="M267.695 33.2707H20.8671V49.9612H267.695V33.2707Z" fill="#DBDBDB" stroke="#263238" stroke-linecap="round" stroke-linejoin="round"/>
<path d="M130.722 38.1313H33.3849V45.0826H130.722V38.1313Z" fill="white" stroke="#263238" stroke-linecap="round" stroke-linejoin="round"/>
<path d="M253.122 38.4571H261.667" stroke="#263238" stroke-linecap="round" stroke-linejoin="round"/>
<path d="M253.122 42.0685H261.667" stroke="#263238" stroke-linecap="round" stroke-linejoin="round"/>
<path d="M253.122 45.6891H261.667" stroke="#263238" stroke-linecap="round" stroke-linejoin="round"/>
<path d="M107.089 81.4777C107.089 79.3325 108.221 78.1106 110.284 78.1106C112.348 78.1106 113.47 79.3325 113.47 81.4777V88.4291C113.47 90.5651 112.348 91.7871 110.284 91.7871C108.221 91.7871 107.089 90.5651 107.089 88.4291V81.4777ZM109.198 88.5648C109.198 89.5152 109.615 89.8773 110.284 89.8773C110.954 89.8773 111.371 89.5152 111.371 88.5648V81.3238C111.371 80.3644 110.954 80.0023 110.284 80.0023C109.615 80.0023 109.198 80.3644 109.198 81.3238V88.5648Z" fill="#263238"/>
<path d="M116.702 81.9574V91.6332H114.81V78.2645H117.444L119.607 86.2658V78.2645H121.481V91.6332H119.318L116.702 81.9574Z" fill="#263238"/>
<path d="M122.983 78.2645H125.092V89.7234H128.577V91.6332H123.01L122.983 78.2645Z" fill="#263238"/>
<path d="M129.482 78.2645H131.582V91.6332H129.482V78.2645Z" fill="#263238"/>
<path d="M134.967 81.9574V91.6332H133.103V78.2645H135.737L137.9 86.2658V78.2645H139.764V91.6332H137.628L134.967 81.9574Z" fill="#263238"/>
<path d="M143.349 83.9035H146.236V85.8133H143.349V89.7234H146.969V91.6332H141.249V78.2645H146.978V80.1743H143.358L143.349 83.9035Z" fill="#263238"/>
<path d="M150.635 78.2645H157.125V80.1743H154.925V91.6332H152.825V80.1743H150.635V78.2645Z" fill="#263238"/>
<path d="M160.148 83.9035H163.026V85.8133H160.148V89.7234H163.768V91.6332H158.039V78.2645H163.768V80.1743H160.148V83.9035Z" fill="#263238"/>
<path d="M167.896 78.1106C169.941 78.1106 170.991 79.3325 170.991 81.4777V81.8941H169.009V81.3419C169.009 80.3825 168.629 80.0204 167.959 80.0204C167.289 80.0204 166.909 80.3825 166.909 81.3419C166.909 84.0573 171.009 84.6094 171.009 88.4291C171.009 90.5651 169.941 91.7871 167.878 91.7871C165.814 91.7871 164.782 90.5651 164.782 88.4291V87.6054H166.773V88.5648C166.773 89.5152 167.19 89.8592 167.859 89.8592C168.529 89.8592 168.946 89.5152 168.946 88.5648C168.946 85.8494 164.845 85.2973 164.845 81.4777C164.782 79.3325 165.859 78.1106 167.896 78.1106Z" fill="#263238"/>
<path d="M171.607 78.2645H178.096V80.1743H175.906V91.6332H173.833V80.1743H171.634L171.607 78.2645Z" fill="#263238"/>
<path d="M49.4328 218.821H47.3058L46.9437 216.396H44.4003L44.0383 218.821H42.0742L44.2103 205.453H47.2877L49.4328 218.821ZM44.6357 214.576H46.6631L45.6494 207.815L44.6357 214.576Z" fill="#263238"/>
<path d="M103.731 208.503V208.974C103.731 210.349 103.315 211.227 102.374 211.689C103.505 212.124 103.939 213.137 103.939 214.549V215.644C103.939 217.708 102.853 218.812 100.753 218.812H97.4497V205.453H100.618C102.799 205.453 103.731 206.466 103.731 208.503ZM99.5496 207.335V210.865H100.373C101.152 210.865 101.631 210.521 101.631 209.453V208.711C101.631 207.752 101.306 207.335 100.563 207.335H99.5496ZM99.5496 212.766V216.875H100.753C101.459 216.875 101.84 216.55 101.84 215.554V214.395C101.84 213.146 101.441 212.766 100.491 212.766H99.5496Z" fill="#263238"/>
<path d="M161.65 213.834V215.644C161.65 217.79 160.582 219.012 158.519 219.012C156.455 219.012 155.387 217.79 155.387 215.644V208.693C155.387 206.557 156.455 205.335 158.519 205.335C160.582 205.335 161.65 206.557 161.65 208.693V209.996H159.668V208.503C159.668 207.544 159.243 207.182 158.573 207.182C157.903 207.182 157.487 207.544 157.487 208.503V215.744C157.487 216.703 157.912 217.047 158.573 217.047C159.234 217.047 159.668 216.703 159.668 215.744V213.834H161.65Z" fill="#263238"/>
<path d="M35.9826 198.329H196.416" stroke="#263238" stroke-linecap="round" stroke-linejoin="round"/>
<path opacity="0.3" d="M299.492 34.3478H317.205V16.6345L299.492 16.6345V34.3478Z" stroke="black" stroke-linecap="round" stroke-linejoin="round"/>
<path opacity="0.3" d="M322.69 34.3478H340.404V16.6345L322.69 16.6345V34.3478Z" stroke="black" stroke-linecap="round" stroke-linejoin="round"/>
<path opacity="0.3" d="M303.302 23.6402L306.326 29.6864L315.214 19.902" stroke="black" stroke-width="2" stroke-linecap="round" stroke-linejoin="round"/>
<path opacity="0.3" d="M31.3484 294.227H49.0617V276.514H31.3484L31.3484 294.227Z" stroke="black" stroke-linecap="round" stroke-linejoin="round"/>
<path opacity="0.3" d="M54.5377 294.227H72.251V276.514H54.5377V294.227Z" stroke="black" stroke-linecap="round" stroke-linejoin="round"/>
<path opacity="0.3" d="M35.1409 283.52L38.164 289.566L47.0524 279.782" stroke="black" stroke-width="2" stroke-linecap="round" stroke-linejoin="round"/>
<path opacity="0.3" d="M115.263 294.227H132.976V276.514H115.263V294.227Z" stroke="black" stroke-linecap="round" stroke-linejoin="round"/>
<path opacity="0.3" d="M138.461 294.227H156.174V276.514H138.461V294.227Z" stroke="black" stroke-linecap="round" stroke-linejoin="round"/>
<path opacity="0.3" d="M119.064 283.52L122.087 289.566L130.976 279.782" stroke="black" stroke-width="2" stroke-linecap="round" stroke-linejoin="round"/>
<g opacity="0.3">
<path opacity="0.3" d="M142.734 25.4939C148.932 24.4922 153.145 18.6556 152.143 12.4575C151.141 6.25929 145.305 2.04669 139.107 3.04836C132.908 4.05002 128.696 9.88664 129.697 16.0848C130.699 22.283 136.536 26.4956 142.734 25.4939Z" stroke="black" stroke-linecap="round" stroke-linejoin="round"/>
<path opacity="0.3" d="M144.1 18.3814L140.923 14.2721V7.80049" stroke="black" stroke-linecap="round" stroke-linejoin="round"/>
</g>
<g opacity="0.3">
<path opacity="0.3" d="M353.121 232.326H351.437L351.147 230.407H349.102L348.812 232.326H347.283L348.984 221.727H351.419L353.121 232.326ZM349.319 228.968H350.921L350.116 223.601L349.319 228.968Z" fill="black"/>
<path opacity="0.3" d="M376.826 224.162V224.542C376.89 224.965 376.822 225.397 376.63 225.779C376.439 226.162 376.134 226.476 375.758 226.678C376.183 226.871 376.533 227.197 376.757 227.607C376.981 228.017 377.065 228.488 376.998 228.95V229.855C377.039 230.197 377.002 230.543 376.889 230.868C376.776 231.193 376.59 231.488 376.346 231.73C376.101 231.972 375.804 232.155 375.478 232.265C375.152 232.374 374.805 232.408 374.463 232.362H371.848V221.727H374.364C376.084 221.727 376.826 222.523 376.826 224.162ZM373.513 223.257V226.062H374.165C374.78 226.062 375.16 225.791 375.16 224.94V224.352C375.16 223.591 374.907 223.257 374.31 223.257H373.513ZM373.513 227.574V230.832H374.463C375.025 230.832 375.369 230.579 375.369 229.792V228.886C375.369 227.909 375.043 227.601 374.291 227.601L373.513 227.574Z" fill="black"/>
<path opacity="0.3" d="M400.83 228.416V229.819C400.83 231.52 399.988 232.489 398.35 232.489C396.711 232.489 395.861 231.52 395.861 229.819V224.307C395.861 222.605 396.711 221.636 398.35 221.636C399.988 221.636 400.83 222.605 400.83 224.307V225.338H399.255V224.162C399.255 223.401 398.92 223.121 398.395 223.121C397.87 223.121 397.49 223.401 397.49 224.162V229.891C397.49 230.651 397.825 230.923 398.395 230.923C398.965 230.923 399.255 230.651 399.255 229.891V228.416H400.83Z" fill="black"/>
<path opacity="0.3" d="M356.433 238.11H343.553V250.99H356.433V238.11Z" stroke="black" stroke-miterlimit="10"/>
<path opacity="0.3" d="M380.392 238.11H367.512V250.99H380.392V238.11Z" stroke="black" stroke-miterlimit="10"/>
<path opacity="0.3" d="M404.351 238.11H391.471V250.99H404.351V238.11Z" stroke="black" stroke-miterlimit="10"/>
</g>
<path d="M51.1344 387.32H23.8811" stroke="#263238" stroke-miterlimit="10"/>
<path d="M406.749 387.32H60.0137" stroke="#263238" stroke-miterlimit="10"/>
<path d="M302.035 387.012L307.864 298.491L312.155 256.402L300.388 243.269L294.487 238.979C294.487 238.979 286.177 246.22 280.285 247.822C274.393 249.424 268.727 251.044 268.727 251.044C268.727 251.044 248.624 288.842 247.004 305.994C245.383 323.146 242.713 386.686 242.713 386.686L244.949 387.012H302.035Z" fill="#9E9E9E" stroke="#263238" stroke-miterlimit="10"/>
<path d="M274.402 314.032C274.402 314.032 273.397 313.516 275.406 308.338" stroke="#263238" stroke-miterlimit="10"/>
<path d="M272.039 250.139C273.039 257.29 273.592 264.497 273.696 271.717C273.696 271.717 279.733 269.3 284.557 260.855C287.222 256.323 289.517 251.583 291.418 246.681L272.039 250.139Z" fill="#263238" stroke="#263238" stroke-miterlimit="10"/>
<path d="M302.035 387.012L307.276 307.424C302.135 310.049 291.988 314.385 280.792 314.575C267.378 314.801 250.769 304.383 250.769 304.383L247.031 305.849C247.031 305.894 247.031 305.949 247.031 305.994C245.42 323.191 242.741 386.686 242.741 386.686L244.976 387.012H302.035Z" fill="white" stroke="#263238" stroke-miterlimit="10"/>
<path d="M293.31 342.462C293.31 362.963 294.016 382.685 294.215 386.994H333.724C334.267 380.604 337.67 340.832 339.417 326.577C341.327 310.999 353.854 287.81 353.854 279.51C353.854 271.21 356.397 272.523 344.956 266.485C333.516 260.448 308.281 247.414 304.787 245.821C301.293 244.228 297.473 240.391 297.473 240.391C297.473 240.391 298.741 248.338 298.379 269.943C298.017 291.548 293.31 319.281 293.31 342.462Z" fill="#7572FE"/>
<g opacity="0.2">
<path opacity="0.2" d="M297.473 240.472C297.945 244.232 298.217 248.015 298.288 251.804V241.241C297.781 240.78 297.473 240.472 297.473 240.472Z" fill="black"/>
<path opacity="0.2" d="M349.428 292.2V294.915C349.735 294.092 350.043 293.295 350.333 292.508V292.182H350.45C350.568 291.883 350.677 291.576 350.785 291.277H350.333V280.008H353.836C353.836 279.872 353.836 279.727 353.836 279.592C353.836 279.456 353.836 279.266 353.836 279.103H350.333V269.454C350.052 269.282 349.753 269.119 349.428 268.938V279.103H339.924V267.789H347.273L345.572 266.884H339.924V263.897L339.019 263.417V266.857H329.515V258.475L328.61 258.004V266.857H319.106V255.57H323.84L322.084 254.664H319.106V253.135L318.201 252.664V254.664H308.697V247.831C308.38 247.668 308.082 247.514 307.792 247.378V254.664H298.379C298.379 254.963 298.379 255.262 298.379 255.57H307.792V266.884H298.46C298.46 267.182 298.46 267.481 298.46 267.789H307.792V279.103H298.288V274.804C298.107 279.221 297.781 283.855 297.383 288.57V291.286H297.148L297.066 292.191H297.383V303.541H296.025L295.935 304.446H297.428V315.76H294.858L294.776 316.666H297.428V327.98H293.898L293.844 328.885H297.464V340.199H293.455C293.455 340.507 293.455 340.805 293.455 341.104H297.473V352.418H293.482C293.482 352.726 293.482 353.024 293.482 353.323H297.464V364.637H293.663C293.663 364.945 293.663 365.244 293.663 365.542H297.446V387.039H298.351V365.515H307.792V387.012H308.697V365.515H318.201V387.012H319.106V365.515H328.61V387.012H329.515V365.515H335.606C335.606 365.217 335.606 364.918 335.688 364.61H329.515V353.323H336.756C336.756 353.024 336.819 352.726 336.846 352.418H329.515V341.104H337.878C337.878 340.796 337.933 340.507 337.969 340.199H329.515V328.885H339.019V330.089L339.417 326.622C339.544 325.608 339.716 324.558 339.924 323.481V316.666H341.616L341.888 315.76H339.924V304.446H345.807C345.925 304.148 346.033 303.84 346.151 303.541H339.924V292.227L349.428 292.2ZM339.924 280.008H349.428V291.322H339.924V280.008ZM307.792 364.61H298.288V353.323H307.792V364.61ZM307.792 352.391H298.288V341.077H307.792V352.391ZM307.792 340.172H298.288V328.885H307.792V340.172ZM307.792 327.953H298.288V316.638H307.792V327.953ZM307.792 315.733H298.288V304.446H307.792V315.733ZM307.792 303.514H298.288V292.2H307.792V303.514ZM307.792 291.295H298.288V280.008H307.792V291.295ZM318.201 364.61H308.697V353.323H318.201V364.61ZM318.201 352.391H308.697V341.077H318.201V352.391ZM318.201 340.172H308.697V328.885H318.201V340.172ZM318.201 327.953H308.697V316.638H318.201V327.953ZM318.201 315.733H308.697V304.446H318.201V315.733ZM318.201 303.514H308.697V292.2H318.201V303.514ZM318.201 291.295H308.697V280.008H318.201V291.295ZM318.201 279.076H308.697V267.762H318.201V279.076ZM318.201 266.857H308.697V255.57H318.201V266.857ZM328.61 364.61H319.106V353.323H328.61V364.61ZM328.61 352.391H319.106V341.077H328.61V352.391ZM328.61 340.172H319.106V328.885H328.61V340.172ZM328.61 327.953H319.106V316.638H328.61V327.953ZM328.61 315.733H319.106V304.446H328.61V315.733ZM328.61 303.514H319.106V292.2H328.61V303.514ZM328.61 291.295H319.106V280.008H328.61V291.295ZM328.61 279.076H319.106V267.762H328.61V279.076ZM339.019 327.953H329.515V316.638H339.019V327.953ZM339.019 315.733H329.515V304.446H339.019V315.733ZM339.019 303.514H329.515V292.2H339.019V303.514ZM339.019 291.295H329.515V280.008H339.019V291.295ZM339.019 279.076H329.515V267.762H339.019V279.076Z" fill="black"/>
</g>
<path d="M293.31 342.462C293.31 362.963 294.016 382.685 294.215 386.994H333.724C334.267 380.604 337.67 340.832 339.417 326.577C341.327 310.999 353.854 287.81 353.854 279.51C353.854 271.21 356.397 272.523 344.956 266.485C333.516 260.448 308.281 247.414 304.787 245.821C301.293 244.228 297.473 240.391 297.473 240.391C297.473 240.391 298.741 248.338 298.379 269.943C298.017 291.548 293.31 319.281 293.31 342.462Z" stroke="#263238" stroke-miterlimit="10"/>
<path d="M297.473 240.472C297.473 240.472 298.741 248.419 298.379 270.024C298.306 275.455 297.935 281.32 297.473 287.367C298.56 285.873 302.062 281.103 302.904 280.832C303.855 280.515 308.941 285.285 313.069 285.918C317.196 286.552 318.789 286.552 314.345 281.782C309.901 277.012 308.009 263.037 306.398 252.546C306.091 250.301 305.598 248.085 304.923 245.921H304.814C301.284 244.292 297.473 240.472 297.473 240.472Z" fill="#263238" stroke="#263238" stroke-miterlimit="10"/>
<path d="M323.55 338.769C326.474 337.438 328.773 336.289 328.773 336.289L329.85 344.598C329.85 344.598 314.028 351.567 305.185 352.101C296.342 352.635 295.536 352.907 295.536 352.907L295.799 344.869" stroke="#263238" stroke-miterlimit="10"/>
<path d="M315.63 342.018C317.25 341.475 319.151 340.706 321.007 339.9" stroke="#263238" stroke-miterlimit="10"/>
<path d="M298.741 344.064C303.367 343.946 307.981 343.526 312.553 342.806" stroke="#263238" stroke-miterlimit="10"/>
<path d="M329.85 344.598L330.384 351.033" stroke="#263238" stroke-miterlimit="10"/>
<path d="M208.581 387.012H253.041C253.14 383.527 254.426 339.239 255.295 316.638C256.2 293.105 272.166 257.407 272.166 257.407C272.166 257.407 274.302 252.374 272.039 250.112C269.777 247.849 264.346 248.754 260.273 251.922C256.2 255.09 218.637 271.382 216.374 273.645C214.111 275.908 214.564 283.601 213.659 292.653C212.754 301.704 197.819 364.157 197.819 364.157C197.819 364.157 193.746 365.063 192.388 365.968C191.031 366.873 191.031 369.588 191.031 369.588C191.031 369.588 192.841 370.041 198.272 372.756C203.268 375.254 207.875 385.392 208.581 387.012Z" fill="#7572FE"/>
<path opacity="0.2" d="M266.156 267.762V272.387C266.464 271.554 266.763 270.748 267.061 269.97V267.762H267.912L268.265 266.856H267.061V255.57H272.763C272.827 255.289 272.899 254.981 272.945 254.664H267.061V248.98C266.763 249.025 266.464 249.071 266.156 249.143V254.664H256.652V254.049L255.747 254.511V254.664H255.439L253.629 255.57H255.747V266.884H246.243V259.1L245.338 259.525V266.856H235.834V263.969L234.929 264.395V266.856H229.67L227.752 267.762H234.929V279.103H225.425V268.875L224.52 269.309V279.103H215.016V276.822C214.508 280.119 214.205 283.444 214.111 286.778V291.304H213.786L213.704 292.209H214.111V303.541H211.677L211.487 304.446H214.111V315.76H209.034C208.97 316.059 208.898 316.367 208.834 316.666H214.111V327.98H206.282C206.21 328.287 206.146 328.586 206.074 328.885H214.111V340.199H204.608V335.221L203.702 339.131V340.154H203.467L203.259 341.059H203.702V352.418H200.607L200.39 353.323H203.702V364.637H196.018C195.095 364.884 194.189 365.186 193.303 365.542V370.466C193.574 370.575 193.873 370.702 194.208 370.855V365.542H203.702V378.214C204.019 378.667 204.318 379.119 204.608 379.581V365.551H214.111V387.048H215.016V365.515H224.52V387.012H225.425V365.515H234.929V387.012H235.834V365.515H245.338V387.012H246.243V365.515H253.674V364.61H246.243V353.323H254.055V352.418H246.243V341.104H254.444V340.199H246.243V328.885H254.851C254.851 328.586 254.851 328.278 254.851 327.98H246.243V316.666H255.295C255.295 316.367 255.295 316.068 255.34 315.76H246.243V304.446H255.747V311.135C255.982 309.207 256.281 307.225 256.652 305.216V304.446H256.797C256.851 304.148 256.915 303.849 256.969 303.541H256.652V292.227H259.684C259.766 291.928 259.856 291.63 259.938 291.322H256.652V280.008H263.441C263.549 279.709 263.649 279.401 263.748 279.103H256.652V267.789L266.156 267.762ZM256.652 255.57H266.156V266.884H256.652V255.57ZM214.111 364.637H204.608V353.323H214.111V364.637ZM214.111 352.418H204.608V341.104H214.111V352.418ZM224.52 364.637H215.016V353.323H224.52V364.637ZM224.52 352.418H215.016V341.104H224.52V352.418ZM224.52 340.199H215.016V328.885H224.52V340.199ZM224.52 327.98H215.016V316.666H224.52V327.98ZM224.52 315.76H215.016V304.446H224.52V315.76ZM224.52 303.541H215.016V292.227H224.52V303.541ZM224.52 291.322H215.016V280.008H224.52V291.322ZM234.929 364.637H225.425V353.323H234.929V364.637ZM234.929 352.418H225.425V341.104H234.929V352.418ZM234.929 340.199H225.425V328.885H234.929V340.199ZM234.929 327.98H225.425V316.666H234.929V327.98ZM234.929 315.76H225.425V304.446H234.929V315.76ZM234.929 303.541H225.425V292.227H234.929V303.541ZM234.929 291.322H225.425V280.008H234.929V291.322ZM245.338 364.637H235.834V353.323H245.338V364.637ZM245.338 352.418H235.834V341.104H245.338V352.418ZM245.338 340.199H235.834V328.885H245.338V340.199ZM245.338 327.98H235.834V316.666H245.338V327.98ZM245.338 315.76H235.834V304.446H245.338V315.76ZM245.338 303.541H235.834V292.227H245.338V303.541ZM245.338 291.322H235.834V280.008H245.338V291.322ZM245.338 279.103H235.834V267.789H245.338V279.103ZM255.747 303.541H246.243V292.227H255.747V303.541ZM255.747 291.322H246.243V280.008H255.747V291.322ZM255.747 279.103H246.243V267.789H255.747V279.103Z" fill="black"/>
<path d="M208.581 387.012H253.041C253.14 383.527 254.426 339.239 255.295 316.638C256.2 293.105 272.166 257.407 272.166 257.407C272.166 257.407 274.302 252.374 272.039 250.112C269.777 247.849 264.346 248.754 260.273 251.922C256.2 255.09 218.637 271.382 216.374 273.645C214.111 275.908 214.564 283.601 213.659 292.653C212.754 301.704 197.819 364.157 197.819 364.157C197.819 364.157 193.746 365.063 192.388 365.968C191.031 366.873 191.031 369.588 191.031 369.588C191.031 369.588 192.841 370.041 198.272 372.756C203.268 375.254 207.875 385.392 208.581 387.012Z" stroke="#263238" stroke-miterlimit="10"/>
<path d="M191.031 369.615C191.031 369.615 192.841 370.068 198.272 372.783C203.702 375.499 208.681 387.265 208.681 387.265H217.451C218.003 385.618 219.352 379.626 213.206 372.331C205.965 363.732 197.819 364.185 197.819 364.185C197.819 364.185 193.746 365.09 192.388 365.995C191.031 366.9 191.031 369.615 191.031 369.615Z" fill="#263238" stroke="#263238" stroke-miterlimit="10"/>
<path d="M266.572 249.035C264.626 254.185 260.019 265.834 256.2 271.382C251.222 278.623 242.17 284.506 245.338 287.222C248.506 289.937 257.557 281.338 257.557 281.338C257.557 281.338 259.82 287.674 260.273 289.485C260.297 289.567 260.337 289.644 260.39 289.711C263.658 278.716 267.587 267.928 272.157 257.407C272.157 257.407 274.293 252.374 272.03 250.112C270.863 248.935 268.871 248.627 266.572 249.035Z" fill="#263238" stroke="#263238" stroke-miterlimit="10"/>
<path d="M233.517 292.725C233.777 291.052 233.946 289.366 234.024 287.674" stroke="#263238" stroke-miterlimit="10"/>
<path d="M226.331 388.143C226.331 388.143 227.688 359.179 227.688 342.434C227.688 330.369 230.974 310.076 232.82 297.649" stroke="#263238" stroke-miterlimit="10"/>
<path d="M228.593 336.126C228.593 336.126 235.834 338.389 239.455 338.841L250.316 340.199L249.493 350.454C249.493 350.454 248.959 350.155 240.813 347.44C232.666 344.724 227.688 342.462 227.688 342.462" stroke="#263238" stroke-miterlimit="10"/>
<path d="M249.493 350.427C249.493 350.427 248.959 370.52 248.959 373.236C248.959 375.951 240.813 374.141 240.813 374.141" stroke="#263238" stroke-miterlimit="10"/>
<path d="M255.992 239.476C255.992 239.476 264.527 251.75 272.166 257.407C279.805 263.064 286.322 255.144 291.418 246.654C296.514 238.164 299.908 231.937 302.452 224.578C304.995 217.219 302.452 205.054 292.269 195.433C282.086 185.812 258.3 171.655 252.362 179.014C246.424 186.373 240.758 202.547 244.714 216.369C247.076 224.678 250.895 232.502 255.992 239.476Z" fill="#9E9E9E" stroke="#263238" stroke-miterlimit="10"/>
<path d="M252.398 213.074C255.619 212.109 259.052 212.109 262.273 213.074" stroke="#263238" stroke-width="2" stroke-miterlimit="10" stroke-linecap="round"/>
<path d="M259.703 220.65C259.974 222.116 259.63 223.41 258.933 223.537C258.236 223.664 257.467 222.578 257.195 221.102C256.924 219.627 257.268 218.342 257.965 218.215C258.662 218.088 259.431 219.174 259.703 220.65Z" fill="#263238"/>
<path d="M284.883 221.039C285.146 222.505 284.802 223.754 284.114 223.926C283.426 224.098 282.647 222.967 282.376 221.492C282.104 220.016 282.448 218.731 283.145 218.604C283.842 218.478 284.612 219.564 284.883 221.039Z" fill="#263238"/>
<path d="M266.228 240.997C269.499 242.124 272.957 242.604 276.411 242.409C282.358 242.128 287.454 237.883 287.454 237.883" stroke="#263238" stroke-miterlimit="10"/>
<path d="M253.24 185.268C253.24 185.268 265.812 213.943 267.387 214.73C268.962 215.518 272.103 206.086 272.103 206.086C272.103 206.086 276.42 213.934 281.543 216.296C286.666 218.659 288.223 214.73 288.223 214.73C290.79 216.176 293.282 217.75 295.69 219.446L297.654 221.012L299.619 228.081C299.619 228.081 293.726 247.333 295.69 249.695C297.654 252.058 308.652 248.908 308.652 248.908C308.652 248.908 305.936 252.836 309.439 252.836C312.942 252.836 319.26 253.624 328.293 241.441C337.326 229.258 338.114 209.625 338.114 209.625C338.114 209.625 342.431 214.332 342.829 208.44C343.228 202.547 337.724 192.727 337.724 192.727C337.724 192.727 346.359 201.371 345.581 192.337C344.802 183.304 339.689 173.085 337.724 170.732C335.76 168.379 323.966 161.681 323.966 161.681C323.966 161.681 328.682 160.893 325.152 155.39C321.622 149.887 308.652 148.321 303.936 148.321C299.22 148.321 289.4 149.896 289.4 149.896C289.4 149.896 295.69 137.713 289.011 136.926C282.331 136.138 270.546 149.109 270.546 149.109C270.546 149.109 258.779 139.677 255.222 141.641C251.665 143.606 254.046 146.357 254.046 146.357C254.046 146.357 238.731 147.534 234.404 154.214C230.078 160.893 235.192 164.822 235.192 164.822C235.192 164.822 207.694 183.675 212.011 190.744C216.329 197.813 224.194 191.143 224.194 191.143C224.194 191.143 213.188 219.428 214.763 221.392C216.338 223.356 223.814 220.605 223.814 220.605C223.814 220.605 223.425 243.387 229.317 245.749C235.21 248.111 236.387 243.785 236.387 243.785C236.387 243.785 239.527 246.926 246.605 247.315C253.683 247.704 256.028 239.458 256.028 239.458C256.028 239.458 248.171 220.994 248.57 205.679C248.968 190.364 253.24 185.268 253.24 185.268Z" fill="#263238" stroke="#263238" stroke-miterlimit="10"/>
<path d="M269.062 218.351C269.062 218.351 266.229 233.068 268.491 236.182C270.754 239.295 278.683 236.182 279.244 234.489" fill="#9E9E9E"/>
<path d="M269.062 218.351C269.062 218.351 266.229 233.068 268.491 236.182C270.754 239.295 278.683 236.182 279.244 234.489" stroke="#263238" stroke-miterlimit="10"/>
<path d="M257.313 227.411C263.487 227.411 268.491 223.736 268.491 219.202C268.491 214.668 263.487 210.992 257.313 210.992C251.139 210.992 246.135 214.668 246.135 219.202C246.135 223.736 251.139 227.411 257.313 227.411Z" stroke="#263238" stroke-miterlimit="10"/>
<path d="M284.195 226.85C290.369 226.85 295.374 223.174 295.374 218.64C295.374 214.106 290.369 210.431 284.195 210.431C278.022 210.431 273.017 214.106 273.017 218.64C273.017 223.174 278.022 226.85 284.195 226.85Z" stroke="#263238" stroke-miterlimit="10"/>
<path d="M269.062 218.351C269.062 218.351 271.324 216.658 273.017 218.64" stroke="#263238" stroke-miterlimit="10"/>
<path d="M175.924 374.965C175.924 374.965 190.135 370.955 194.506 370.231C198.878 369.507 207.631 377.517 209.088 381.889C210.545 386.261 208.681 387.238 208.681 387.238L179.563 386.27L175.924 374.965Z" fill="#9E9E9E" stroke="#263238" stroke-miterlimit="10"/>
<path d="M181.074 373.553C181.074 373.553 191.8 377.571 194.479 379.183C197.158 380.794 196.353 384.007 194.751 385.609C192.818 387.225 190.513 388.332 188.044 388.831C185.545 388.974 183.039 388.974 180.54 388.831C177.327 388.56 174.376 389.103 171.697 389.103C169.018 389.103 160.971 388.297 160.971 388.297L158.555 386.686C158.555 386.686 154.029 388.026 150.517 389.401C147.005 390.777 148.101 387.79 150.78 385.645C153.459 383.5 160.166 378.142 161.243 377.608C162.32 377.074 175.987 373.082 175.987 373.082L181.074 373.553Z" fill="#9E9E9E" stroke="#263238" stroke-miterlimit="10"/>
<path d="M185.093 374.621C185.093 374.621 178.115 371.408 176.241 371.408C174.367 371.408 160.962 375.933 159.089 377.3C157.215 378.667 155.333 391.51 156.672 392.316C158.012 393.121 159.089 390.705 159.387 389.103C159.686 387.501 163.415 378.911 163.415 378.911L160.7 392.587C160.7 392.587 161.777 394.724 162.845 392.85C163.913 390.976 170.62 378.105 171.154 377.3C171.857 376.553 172.672 375.92 173.571 375.426C173.571 375.426 172.231 381.328 171.154 386.958C170.077 392.587 170.892 394.199 172.503 394.461C174.114 394.724 174.91 390.976 175.716 389.103C176.522 387.229 180.006 376.494 180.006 376.494" fill="#9E9E9E"/>
<path d="M185.093 374.621C185.093 374.621 178.115 371.408 176.241 371.408C174.367 371.408 160.962 375.933 159.089 377.3C157.215 378.667 155.333 391.51 156.672 392.316C158.012 393.121 159.089 390.705 159.387 389.103C159.686 387.501 163.415 378.911 163.415 378.911L160.7 392.587C160.7 392.587 161.777 394.724 162.845 392.85C163.913 390.976 170.62 378.105 171.154 377.3C171.857 376.553 172.672 375.92 173.571 375.426C173.571 375.426 172.231 381.328 171.154 386.958C170.077 392.587 170.892 394.199 172.503 394.461C174.114 394.724 174.91 390.976 175.716 389.103C176.522 387.229 180.006 376.494 180.006 376.494" stroke="#263238" stroke-miterlimit="10"/>
<path d="M192.841 379.988C192.841 379.988 184.803 388.297 183.726 390.171C182.649 392.044 182.658 392.316 185.609 392.316C188.56 392.316 197.674 386.415 198.471 385.609C199.267 384.803 199.014 382.396 197.131 380.785C196.532 380.319 195.829 380.003 195.083 379.865C194.336 379.726 193.568 379.769 192.841 379.988Z" fill="#9E9E9E" stroke="#263238" stroke-miterlimit="10"/>
<path d="M243.039 379.065C243.039 379.065 232.313 382.532 229.68 384.496C227.046 386.46 223.244 388.623 224.068 389.284C224.891 389.944 227.534 389.284 228.358 388.623C229.182 387.962 232.974 387.302 232.974 387.302C232.974 387.302 237.427 384.659 240.894 382.522C244.361 380.386 246.995 378.069 243.039 379.065Z" fill="#9E9E9E" stroke="#263238" stroke-miterlimit="10"/>
<path d="M302.243 360.908C302.243 360.908 272.374 366.339 261.567 370.131C250.76 373.924 246.461 376.567 241.057 380.386C235.653 384.206 224.701 391.42 226.331 392.687C227.96 393.954 233.635 389.51 234.594 388.56C235.554 387.609 242.532 384.749 242.532 384.749L247.203 382.36C247.203 382.36 240.17 391.022 237.636 393.221C235.101 395.421 236.812 396.796 238.722 396.163C240.632 395.529 244.234 391.737 244.234 391.737L255.847 384.097C255.847 384.097 251.077 390.777 248.85 392.678C246.624 394.579 251.394 396.181 252.353 394.588C253.312 392.995 258.073 388.867 258.073 388.867C258.073 388.867 266.011 384.74 267.921 383.147C269.831 381.554 274.592 377.11 274.592 377.11L310.181 379.97C310.181 379.97 312.408 378.703 311.141 371.389C309.874 364.076 302.243 360.908 302.243 360.908Z" fill="#9E9E9E" stroke="#263238" stroke-miterlimit="10"/>
<path d="M326.392 304.664L343.87 347.892L315.585 357.74L323.532 380.938C323.532 380.938 343.843 380.993 359.737 380.033C375.631 379.074 386.782 369.489 384.239 358.057C381.695 346.625 372.164 330.089 364.534 310.384C356.904 290.679 359.266 278.931 355.773 272.894C352.279 266.856 342.422 265.263 342.422 265.263L336.991 264.358" fill="#7572FE"/>
<path opacity="0.2" d="M381.56 370.077V365.551H383.922C384.022 365.253 384.103 364.954 384.175 364.646H381.56V353.323H382.917C382.818 353.033 382.709 352.726 382.61 352.418H381.56V349.657C381.27 348.906 380.971 348.137 380.654 347.367V352.418H371.151V341.104H377.975C377.84 340.805 377.713 340.507 377.577 340.199H371.151V328.885H372.418C372.273 328.586 372.137 328.287 372.001 327.98H371.151V326.088C370.852 325.418 370.544 324.748 370.246 324.069V327.98H360.742V316.666H367.078C366.951 316.367 366.824 316.068 366.706 315.76H360.742V304.446H362.434C362.335 304.148 362.244 303.84 362.154 303.541H360.742V298.382C360.398 296.952 360.099 295.585 359.837 294.273V303.541H350.333V292.227H359.456L359.294 291.322H350.333V280.008H357.764L357.628 279.103H350.333V268.006C349.539 267.58 348.723 267.196 347.889 266.856H339.924V264.829L339.019 264.666V266.856H336.349L336.104 267.762H339.019V279.103H333.135L332.9 280.008H339.028V291.322H329.913L329.669 292.227H339.019V303.541H329.515V292.806L328.61 296.237V303.478H326.691L326.456 304.383H328.61V310.112L329.515 312.348V304.446H339.019V315.76H330.873L331.235 316.666H339.019V327.98H335.851L336.222 328.885H339.064V335.918L339.969 338.153V328.885H349.428V340.199H340.748L341.119 341.104H349.428V352.418H339.924V349.286L339.019 349.603V352.418H330.927L328.32 353.323H328.61V364.637H319.106V356.491L318.201 356.808V364.592H317.938L319.106 367.995V365.497H328.61V380.884H329.515V365.497H339.019V380.767H339.924V365.515H349.428V380.477H350.333V365.515H359.837V379.997L360.742 379.925V365.515H370.246V377.934L371.151 377.59V365.515H380.654V371.199C380.971 370.828 381.279 370.457 381.56 370.077ZM339.019 364.646H329.515V353.323H339.019V364.646ZM349.428 364.646H339.924V353.323H349.428V364.646ZM349.428 327.989H339.924V316.675H349.428V327.989ZM349.428 315.769H339.924V304.446H349.428V315.769ZM349.428 303.55H339.924V292.236H349.428V303.55ZM349.428 291.331H339.924V280.008H349.428V291.331ZM349.428 279.112H339.924V267.798H349.428V279.112ZM359.837 364.646H350.333V353.323H359.837V364.646ZM359.837 352.427H350.333V341.113H359.837V352.427ZM359.837 340.208H350.333V328.885H359.837V340.208ZM359.837 327.989H350.333V316.675H359.837V327.989ZM359.837 315.769H350.333V304.446H359.837V315.769ZM370.246 364.646H360.742V353.323H370.246V364.646ZM370.246 352.427H360.742V341.113H370.246V352.427ZM370.246 340.208H360.742V328.885H370.246V340.208ZM371.151 364.646V353.323H380.654V364.637L371.151 364.646Z" fill="#263238"/>
<path d="M326.392 304.664L343.87 347.892L315.585 357.74L323.532 380.939C323.532 380.939 343.843 380.993 359.737 380.033C375.631 379.074 386.782 369.489 384.239 358.057C381.695 346.625 372.164 330.089 364.534 310.384C356.904 290.679 359.266 278.931 355.773 272.894C352.279 266.856 342.422 265.263 342.422 265.263L336.991 264.358" stroke="#263238" stroke-miterlimit="10"/>
<path d="M360.887 343.493C355.12 344.561 349.434 346.028 343.87 347.883C343.87 347.883 355.945 339.936 362.615 339.303" stroke="#263238" stroke-miterlimit="10"/>
<path d="M368.978 343.113C367.726 342.934 366.457 342.891 365.195 342.987" stroke="#263238" stroke-miterlimit="10"/>
<path d="M323.849 354.228C323.849 354.228 330.275 360.374 332.176 365.135C334.077 369.896 333.38 382.83 332.113 384.097C330.845 385.365 307.194 385.211 303.302 380.35C302.289 379.083 309.231 376.159 305.737 369.163C302.243 362.166 300.65 361.542 300.65 361.542C300.65 361.542 297.79 359.949 303.194 356.455C308.597 352.961 320.989 350.427 323.849 354.228Z" fill="#263238" stroke="#263238" stroke-miterlimit="10"/>
<path d="M380.193 403.232H356.732L353.799 356.853H383.125L380.193 403.232Z" fill="#263238" stroke="#263238" stroke-linejoin="round"/>
<path d="M384.429 356.926H352.505V363.678H384.429V356.926Z" fill="white" stroke="#263238" stroke-linejoin="round"/>
<path d="M384.429 357.179H352.505L355.691 353.178H381.234L384.429 357.179Z" fill="white" stroke="#263238" stroke-linejoin="round"/>
<path d="M381.053 389.628L382.22 371.154H354.705L355.872 389.628H381.053Z" fill="white" stroke="#263238" stroke-linejoin="round"/>
<path d="M244.994 406.318L273.904 398.679V402.589L244.994 410.69V406.318Z" fill="#263238" stroke="#263238" stroke-linejoin="round"/>
<path d="M273.904 398.679H122.757L93.5396 406.318H244.994L273.904 398.679Z" fill="white" stroke="#263238" stroke-linejoin="round"/>
<path d="M244.994 318.974H93.5396V410.69H244.994V318.974Z" fill="white" stroke="#263238" stroke-linejoin="round"/>
<path d="M244.994 332.243C212.048 333.809 192.425 364.176 163.27 384.523C136.696 403.078 103.876 406.246 93.5758 406.744V410.69H244.994V332.243Z" fill="#263238" stroke="#263238" stroke-linejoin="round"/>
<path d="M244.994 406.318H93.5396V410.69H244.994V406.318Z" fill="white" stroke="#263238" stroke-miterlimit="10"/>
<path d="M48.6997 376.06C48.6997 376.06 36.0822 355.876 46.2106 344.516C56.3389 333.157 72.7036 338.624 76.0797 349.142C79.4558 359.659 72.2963 377.327 72.2963 377.327L48.6997 376.06Z" fill="#7572FE" stroke="#263238" stroke-linecap="round" stroke-linejoin="round"/>
<path d="M49.116 352.925C47.0161 352.925 39.0239 349.983 36.4986 346.2C33.9733 342.416 33.5388 333.999 40.7074 333.999C47.876 333.999 50.3832 346.616 50.3832 346.616L50.7995 351.241" fill="#7572FE"/>
<path d="M49.116 352.925C47.0161 352.925 39.0239 349.983 36.4986 346.2C33.9733 342.416 33.5388 333.999 40.7074 333.999C47.876 333.999 50.3832 346.616 50.3832 346.616L50.7995 351.241" stroke="#263238" stroke-linecap="round" stroke-linejoin="round"/>
<path d="M55.5877 345.069C53.705 344.163 47.867 337.936 47.2967 333.42C46.7265 328.903 50.1117 321.191 56.5109 324.368C62.9101 327.545 59.534 339.982 59.534 339.982L57.8414 344.308" fill="#7572FE"/>
<path d="M55.5877 345.069C53.705 344.163 47.867 337.936 47.2967 333.42C46.7265 328.903 50.1117 321.191 56.5109 324.368C62.9101 327.545 59.534 339.982 59.534 339.982L57.8414 344.308" stroke="#263238" stroke-linecap="round" stroke-linejoin="round"/>
<path d="M63.2269 347.186C62.177 345.376 60.765 336.968 62.7925 332.895C64.8199 328.821 71.9161 324.278 75.4642 330.487C79.0123 336.696 69.3184 345.15 69.3184 345.15L65.5078 347.811" fill="#7572FE"/>
<path d="M63.2269 347.186C62.177 345.376 60.765 336.968 62.7925 332.895C64.8199 328.821 71.9161 324.278 75.4642 330.487C79.0123 336.696 69.3184 345.15 69.3184 345.15L65.5078 347.811" stroke="#263238" stroke-linecap="round" stroke-linejoin="round"/>
<path d="M65.7341 362.266C65.3902 360.184 66.9651 351.821 70.2598 348.689C73.5544 345.557 81.8001 343.756 82.9858 350.807C84.1715 357.858 72.1243 362.447 72.1243 362.447L67.5987 363.624" fill="#7572FE"/>
<path d="M65.7341 362.266C65.3902 360.184 66.9651 351.821 70.2598 348.689C73.5544 345.557 81.8001 343.756 82.9858 350.807C84.1715 357.858 72.1243 362.447 72.1243 362.447L67.5987 363.624" stroke="#263238" stroke-linecap="round" stroke-linejoin="round"/>
<path d="M37.4218 341.122L38.8429 343.358" stroke="white" stroke-linecap="round" stroke-linejoin="round"/>
<path d="M41.4858 346.607L43.7124 348.426" stroke="white" stroke-linecap="round" stroke-linejoin="round"/>
<path d="M39.051 336.859L41.2776 340.108" stroke="white" stroke-linecap="round" stroke-linejoin="round"/>
<path d="M44.3279 342.751L46.7627 347.214" stroke="white" stroke-linecap="round" stroke-linejoin="round"/>
<path d="M50.0031 331.989L50.8177 334.424" stroke="white" stroke-linecap="round" stroke-linejoin="round"/>
<path d="M52.8452 338.886L54.2662 340.923" stroke="white" stroke-linecap="round" stroke-linejoin="round"/>
<path d="M52.2387 327.12L54.0671 331.175" stroke="white" stroke-linecap="round" stroke-linejoin="round"/>
<path d="M45.1335 355.74L45.749 359.388" stroke="white" stroke-linecap="round" stroke-linejoin="round"/>
<path d="M46.9618 362.836L47.7764 365.886" stroke="white" stroke-linecap="round" stroke-linejoin="round"/>
<path d="M48.9893 355.939L49.8039 359.994" stroke="white" stroke-linecap="round" stroke-linejoin="round"/>
<path d="M51.6323 362.836L52.2387 365.886" stroke="white" stroke-linecap="round" stroke-linejoin="round"/>
<path d="M53.0533 350.662L54.2662 356.346" stroke="white" stroke-linecap="round" stroke-linejoin="round"/>
<path d="M55.8954 361.822L56.0945 364.465" stroke="white" stroke-linecap="round" stroke-linejoin="round"/>
<path d="M58.122 348.834L59.1358 354.111" stroke="white" stroke-linecap="round" stroke-linejoin="round"/>
<path d="M59.1358 359.596L59.5431 365.072" stroke="white" stroke-linecap="round" stroke-linejoin="round"/>
<path d="M64.0144 350.861V355.333" stroke="white" stroke-linecap="round" stroke-linejoin="round"/>
<path d="M63.3989 361.017L63.6071 364.465" stroke="white" stroke-linecap="round" stroke-linejoin="round"/>
<path d="M69.0831 329.754L68.0694 332.198" stroke="white" stroke-linecap="round" stroke-linejoin="round"/>
<path d="M67.6621 335.031L66.6483 338.488" stroke="white" stroke-linecap="round" stroke-linejoin="round"/>
<path d="M73.5454 334.424L71.9252 337.674" stroke="white" stroke-linecap="round" stroke-linejoin="round"/>
<path d="M68.4767 341.33L66.6483 343.358" stroke="white" stroke-linecap="round" stroke-linejoin="round"/>
<path d="M64.6208 334.225L64.0144 336.859" stroke="white" stroke-linecap="round" stroke-linejoin="round"/>
<path d="M73.5454 348.834L71.3188 352.49" stroke="white" stroke-linecap="round" stroke-linejoin="round"/>
<path d="M69.8977 354.717L68.6758 357.966" stroke="white" stroke-linecap="round" stroke-linejoin="round"/>
<path d="M71.7261 359.596L75.3737 357.559" stroke="white" stroke-linecap="round" stroke-linejoin="round"/>
<path d="M77.6094 348.834L75.781 351.884" stroke="white" stroke-linecap="round" stroke-linejoin="round"/>
<path d="M79.4377 352.282L77.0029 354.111" stroke="white" stroke-linecap="round" stroke-linejoin="round"/>
<path d="M76.8129 369.018H42.3095V403.521H76.8129V369.018Z" fill="#263238" stroke="#263238" stroke-linecap="round" stroke-linejoin="round"/>
</svg>
